<svg version="1.1" viewBox="0.0 0.0 960.0 720.0" fill="none" stroke="none" stroke-linecap="square" stroke-miterlimit="10" xmlns:xlink="http://www.w3.org/1999/xlink" xmlns="http://www.w3.org/2000/svg"><clipPath id="p.0"><path d="m0 0l960.0 0l0 720.0l-960.0 0l0 -720.0z" clip-rule="nonzero"/></clipPath><g clip-path="url(#p.0)"><path fill="#000000" fill-opacity="0.0" d="m0 0l960.0 0l0 720.0l-960.0 0z" fill-rule="evenodd"/><path fill="#cfe2f3" d="m79.79265 29.0l197.00789 0l0 81.00787l-197.00789 0z" fill-rule="evenodd"/><path stroke="#cfe2f3" stroke-width="1.0" stroke-linejoin="round" stroke-linecap="butt" d="m79.79265 29.0l197.00789 0l0 81.00787l-197.00789 0z" fill-rule="evenodd"/><path fill="#000000" d="m108.77365 40.678936q0.71875 0 1.40625 0.375q0.6875 0.359375 1.0625 1.0625q0.390625 0.6875 0.390625 1.421875q0 1.1875 -0.84375 2.03125q-0.828125 0.84375 -2.015625 0.84375q-1.1875 0 -2.03125 -0.84375q-0.84375 -0.84375 -0.84375 -2.03125q0 -0.75 0.375 -1.4375q0.390625 -0.6875 1.078125 -1.046875q0.703125 -0.375 1.421875 -0.375z" fill-rule="nonzero"/><path fill="#000000" d="m143.12077 43.116436l-3.984375 0l0 4.1875l-1.25 0l0 -9.46875l5.875 0l0 1.015625l-4.625 0l0 3.25l3.984375 0l0 1.015625zm6.304413 4.1875q-0.109375 -0.203125 -0.171875 -0.734375q-0.84375 0.859375 -2.015625 0.859375q-1.03125 0 -1.703125 -0.578125q-0.671875 -0.59375 -0.671875 -1.5q0 -1.09375 0.828125 -1.703125q0.84375 -0.609375 2.359375 -0.609375l1.171875 0l0 -0.5625q0 -0.625 -0.375 -1.0q-0.375 -0.375 -1.109375 -0.375q-0.640625 0 -1.078125 0.328125q-0.4375 0.328125 -0.4375 0.78125l-1.203125 0q0 -0.515625 0.359375 -1.0q0.375 -0.5 1.015625 -0.78125q0.65625 -0.296875 1.421875 -0.296875q1.21875 0 1.90625 0.609375q0.6875 0.609375 0.71875 1.671875l0 3.25q0 0.96875 0.234375 1.53125l0 0.109375l-1.25 0zm-2.0 -0.921875q0.5625 0 1.0625 -0.28125q0.515625 -0.296875 0.734375 -0.765625l0 -1.453125l-0.9375 0q-2.21875 0 -2.21875 1.296875q0 0.5625 0.375 0.890625q0.390625 0.3125 0.984375 0.3125zm6.859146 -2.34375l-0.75 0.796875l0 2.46875l-1.203125 0l0 -10.0l1.203125 0l0 6.046875l0.640625 -0.765625l2.1875 -2.328125l1.46875 0l-2.734375 2.953125l3.046875 4.09375l-1.40625 0l-2.453125 -3.265625zm7.7082977 3.390625q-1.421875 0 -2.328125 -0.9375q-0.890625 -0.9375 -0.890625 -2.515625l0 -0.21875q0 -1.046875 0.390625 -1.859375q0.40625 -0.828125 1.125 -1.296875q0.71875 -0.46875 1.5625 -0.46875q1.375 0 2.125 0.90625q0.765625 0.90625 0.765625 2.59375l0 0.5l-4.765625 0q0.015625 1.03125 0.59375 1.671875q0.59375 0.640625 1.484375 0.640625q0.640625 0 1.078125 -0.25q0.453125 -0.265625 0.78125 -0.6875l0.734375 0.5625q-0.875 1.359375 -2.65625 1.359375zm-0.140625 -6.3125q-0.734375 0 -1.234375 0.53125q-0.484375 0.53125 -0.609375 1.484375l3.53125 0l0 -0.078125q-0.046875 -0.921875 -0.5 -1.421875q-0.4375 -0.515625 -1.1875 -0.515625zm7.29805 2.609375q0 -1.625 0.765625 -2.609375q0.765625 -0.984375 2.0 -0.984375q1.25 0 1.96875 0.84375l0 -3.671875l1.203125 0l0 10.0l-1.109375 0l-0.0625 -0.75q-0.71875 0.875 -2.0 0.875q-1.234375 0 -2.0 -1.0q-0.765625 -1.0 -0.765625 -2.609375l0 -0.09375zm1.203125 0.140625q0 1.1875 0.484375 1.875q0.5 0.671875 1.375 0.671875q1.140625 0 1.671875 -1.03125l0 -3.234375q-0.546875 -1.0 -1.65625 -1.0q-0.890625 0 -1.390625 0.6875q-0.484375 0.6875 -0.484375 2.03125zm10.954102 3.4375q-0.109375 -0.203125 -0.171875 -0.734375q-0.84375 0.859375 -2.015625 0.859375q-1.03125 0 -1.703125 -0.578125q-0.671875 -0.59375 -0.671875 -1.5q0 -1.09375 0.828125 -1.703125q0.84375 -0.609375 2.359375 -0.609375l1.171875 0l0 -0.5625q0 -0.625 -0.375 -1.0q-0.375 -0.375 -1.109375 -0.375q-0.640625 0 -1.078125 0.328125q-0.4375 0.328125 -0.4375 0.78125l-1.203125 0q0 -0.515625 0.359375 -1.0q0.375 -0.5 1.015625 -0.78125q0.65625 -0.296875 1.421875 -0.296875q1.21875 0 1.90625 0.609375q0.6875 0.609375 0.71875 1.671875l0 3.25q0 0.96875 0.234375 1.53125l0 0.109375l-1.25 0zm-2.0 -0.921875q0.5625 0 1.0625 -0.28125q0.515625 -0.296875 0.734375 -0.765625l0 -1.453125l-0.9375 0q-2.21875 0 -2.21875 1.296875q0 0.5625 0.375 0.890625q0.390625 0.3125 0.984375 0.3125zm6.531021 -7.828125l0 1.703125l1.3125 0l0 0.9375l-1.3125 0l0 4.359375q0 0.421875 0.171875 0.640625q0.171875 0.21875 0.59375 0.21875q0.21875 0 0.578125 -0.078125l0 0.96875q-0.46875 0.125 -0.921875 0.125q-0.8125 0 -1.21875 -0.484375q-0.40625 -0.484375 -0.40625 -1.390625l0 -4.359375l-1.28125 0l0 -0.9375l1.28125 0l0 -1.703125l1.203125 0zm7.072525 8.75q-0.109375 -0.203125 -0.171875 -0.734375q-0.84375 0.859375 -2.015625 0.859375q-1.03125 0 -1.703125 -0.578125q-0.671875 -0.59375 -0.671875 -1.5q0 -1.09375 0.828125 -1.703125q0.84375 -0.609375 2.359375 -0.609375l1.171875 0l0 -0.5625q0 -0.625 -0.375 -1.0q-0.375 -0.375 -1.109375 -0.375q-0.640625 0 -1.078125 0.328125q-0.4375 0.328125 -0.4375 0.78125l-1.203125 0q0 -0.515625 0.359375 -1.0q0.375 -0.5 1.015625 -0.78125q0.65625 -0.296875 1.421875 -0.296875q1.21875 0 1.90625 0.609375q0.6875 0.609375 0.71875 1.671875l0 3.25q0 0.96875 0.234375 1.53125l0 0.109375l-1.25 0zm-2.0 -0.921875q0.5625 0 1.0625 -0.28125q0.515625 -0.296875 0.734375 -0.765625l0 -1.453125l-0.9375 0q-2.21875 0 -2.21875 1.296875q0 0.5625 0.375 0.890625q0.390625 0.3125 0.984375 0.3125z" fill-rule="nonzero"/><path fill="#000000" d="m108.77365 56.678936q0.71875 0 1.40625 0.375q0.6875 0.359375 1.0625 1.0625q0.390625 0.6875 0.390625 1.421875q0 1.1875 -0.84375 2.03125q-0.828125 0.84375 -2.015625 0.84375q-1.1875 0 -2.03125 -0.84375q-0.84375 -0.84375 -0.84375 -2.03125q0 -0.75 0.375 -1.4375q0.390625 -0.6875 1.078125 -1.046875q0.703125 -0.375 1.421875 -0.375z" fill-rule="nonzero"/><path fill="#000000" d="m143.12077 60.835186l-3.96875 0l-0.890625 2.46875l-1.28125 0l3.609375 -9.46875l1.09375 0l3.625 9.46875l-1.28125 0l-0.90625 -2.46875zm-3.59375 -1.03125l3.234375 0l-1.625 -4.4375l-1.609375 4.4375zm8.303894 -0.203125l0 3.703125l-1.25 0l0 -9.46875l3.5 0q1.5625 0 2.4375 0.796875q0.875 0.78125 0.875 2.09375q0 1.375 -0.859375 2.125q-0.859375 0.75 -2.46875 0.75l-2.234375 0zm0 -1.03125l2.25 0q1.0 0 1.53125 -0.46875q0.546875 -0.46875 0.546875 -1.359375q0 -0.84375 -0.546875 -1.34375q-0.53125 -0.515625 -1.453125 -0.546875l-2.328125 0l0 3.71875zm8.501923 4.734375l-1.25 0l0 -9.46875l1.25 0l0 9.46875z" fill-rule="nonzero"/><path fill="#000000" d="m108.77365 72.67894q0.71875 0 1.40625 0.375q0.6875 0.359375 1.0625 1.0625q0.390625 0.6875 0.390625 1.421875q0 1.1875 -0.84375 2.03125q-0.828125 0.84375 -2.015625 0.84375q-1.1875 0 -2.03125 -0.84375q-0.84375 -0.84375 -0.84375 -2.03125q0 -0.75 0.375 -1.4375q0.390625 -0.6875 1.078125 -1.046875q0.703125 -0.375 1.421875 -0.375z" fill-rule="nonzero"/><path fill="#000000" d="m143.12077 76.83519l-3.96875 0l-0.890625 2.46875l-1.28125 0l3.609375 -9.46875l1.09375 0l3.625 9.46875l-1.28125 0l-0.90625 -2.46875zm-3.59375 -1.03125l3.234375 0l-1.625 -4.4375l-1.609375 4.4375zm8.835144 0.234375l-0.75 0.796875l0 2.46875l-1.203125 0l0 -10.0l1.203125 0l0 6.046875l0.640625 -0.765625l2.1875 -2.328125l1.46875 0l-2.734375 2.953125l3.046875 4.09375l-1.40625 0l-2.453125 -3.265625zm7.7082977 3.390625q-1.421875 0 -2.328125 -0.9375q-0.890625 -0.9375 -0.890625 -2.515625l0 -0.21875q0 -1.046875 0.390625 -1.859375q0.40625 -0.828125 1.125 -1.296875q0.71875 -0.46875 1.5625 -0.46875q1.375 0 2.125 0.90625q0.765625 0.90625 0.765625 2.59375l0 0.5l-4.765625 0q0.015625 1.03125 0.59375 1.671875q0.59375 0.640625 1.484375 0.640625q0.640625 0 1.078125 -0.25q0.453125 -0.265625 0.78125 -0.6875l0.734375 0.5625q-0.875 1.359375 -2.65625 1.359375zm-0.140625 -6.3125q-0.734375 0 -1.234375 0.53125q-0.484375 0.53125 -0.609375 1.484375l3.53125 0l0 -0.078125q-0.046875 -0.921875 -0.5 -1.421875q-0.4375 -0.515625 -1.1875 -0.515625zm5.4204254 -0.859375l0.046875 0.890625q0.796875 -1.015625 2.109375 -1.015625q2.234375 0 2.25 2.515625l0 4.65625l-1.203125 0l0 -4.65625q-0.015625 -0.765625 -0.359375 -1.125q-0.328125 -0.375 -1.0625 -0.375q-0.578125 0 -1.03125 0.3125q-0.4375 0.3125 -0.6875 0.828125l0 5.015625l-1.203125 0l0 -7.046875l1.140625 0zm9.135147 7.171875q-1.421875 0 -2.328125 -0.9375q-0.890625 -0.9375 -0.890625 -2.515625l0 -0.21875q0 -1.046875 0.390625 -1.859375q0.40625 -0.828125 1.125 -1.296875q0.71875 -0.46875 1.5625 -0.46875q1.375 0 2.125 0.90625q0.765625 0.90625 0.765625 2.59375l0 0.5l-4.765625 0q0.015625 1.03125 0.59375 1.671875q0.59375 0.640625 1.484375 0.640625q0.640625 0 1.078125 -0.25q0.453125 -0.265625 0.78125 -0.6875l0.734375 0.5625q-0.875 1.359375 -2.65625 1.359375zm-0.140625 -6.3125q-0.734375 0 -1.234375 0.53125q-0.484375 0.53125 -0.609375 1.484375l3.53125 0l0 -0.078125q-0.046875 -0.921875 -0.5 -1.421875q-0.4375 -0.515625 -1.1875 -0.515625zm3.9673004 2.609375q0 -1.046875 0.40625 -1.875q0.40625 -0.828125 1.125 -1.265625q0.734375 -0.453125 1.65625 -0.453125q1.4375 0 2.328125 1.0q0.890625 0.984375 0.890625 2.640625l0 0.09375q0 1.015625 -0.390625 1.84375q-0.390625 0.8125 -1.125 1.265625q-0.734375 0.453125 -1.6875 0.453125q-1.421875 0 -2.3125 -0.984375q-0.890625 -1.0 -0.890625 -2.640625l0 -0.078125zm1.203125 0.140625q0 1.171875 0.546875 1.875q0.546875 0.703125 1.453125 0.703125q0.921875 0 1.453125 -0.71875q0.546875 -0.71875 0.546875 -2.0q0 -1.171875 -0.546875 -1.890625q-0.546875 -0.71875 -1.46875 -0.71875q-0.890625 0 -1.4375 0.71875q-0.546875 0.703125 -0.546875 2.03125zm13.853821 3.4375l-1.21875 0l0 -8.03125l-2.421875 0.90625l0 -1.09375l3.453125 -1.296875l0.1875 0l0 9.515625zm3.6715546 -0.625q0 -0.3125 0.1875 -0.515625q0.1875 -0.21875 0.546875 -0.21875q0.375 0 0.5625 0.21875q0.203125 0.203125 0.203125 0.515625q0 0.296875 -0.203125 0.5q-0.1875 0.203125 -0.5625 0.203125q-0.359375 0 -0.546875 -0.203125q-0.1875 -0.203125 -0.1875 -0.5zm4.7108765 -5.765625l-1.953125 -0.59375l0.296875 -0.984375l1.96875 0.734375l-0.0625 -2.234375l1.0 0l-0.078125 2.265625l1.9375 -0.71875l0.296875 0.984375l-2.0 0.59375l1.296875 1.765625l-0.8125 0.609375l-1.203125 -1.875l-1.171875 1.828125l-0.8125 -0.578125l1.296875 -1.796875z" fill-rule="nonzero"/><path fill="#b6d7a8" d="m51.05512 265.52493l54.73228 -109.46451l143.25984 0l54.7323 109.46451l-54.7323 109.46451l-143.25984 0z" fill-rule="evenodd"/><path stroke="#b6d7a8" stroke-width="1.0" stroke-linejoin="round" stroke-linecap="butt" d="m51.05512 265.52493l54.73228 -109.46451l143.25984 0l54.7323 109.46451l-54.7323 109.46451l-143.25984 0z" fill-rule="evenodd"/><path fill="#fff2cc" d="m93.020996 265.5328l36.55905 -73.11807l95.6693 0l36.559067 73.11807l-36.559067 73.11807l-95.6693 0z" fill-rule="evenodd"/><path stroke="#fff2cc" stroke-width="1.0" stroke-linejoin="round" stroke-linecap="butt" d="m93.020996 265.5328l36.55905 -73.11807l95.6693 0l36.559067 73.11807l-36.559067 73.11807l-95.6693 0z" fill-rule="evenodd"/><path fill="#000000" d="m152.73256 203.35765l0 -1.890625l1.640625 0l0 1.890625l-1.640625 0zm0 11.46875l0 -9.671875l1.640625 0l0 9.671875l-1.640625 0zm4.144821 0l0 -9.671875l1.46875 0l0 1.359375q0.453125 -0.71875 1.203125 -1.140625q0.765625 -0.4375 1.71875 -0.4375q1.078125 0 1.765625 0.453125q0.6875 0.4375 0.96875 1.234375q1.15625 -1.6875 2.984375 -1.6875q1.453125 0 2.21875 0.796875q0.78125 0.796875 0.78125 2.453125l0 6.640625l-1.640625 0l0 -6.09375q0 -0.984375 -0.15625 -1.40625q-0.15625 -0.4375 -0.578125 -0.703125q-0.421875 -0.265625 -0.984375 -0.265625q-1.015625 0 -1.6875 0.6875q-0.671875 0.671875 -0.671875 2.15625l0 5.625l-1.640625 0l0 -6.28125q0 -1.09375 -0.40625 -1.640625q-0.40625 -0.546875 -1.3125 -0.546875q-0.6875 0 -1.28125 0.359375q-0.59375 0.359375 -0.859375 1.0625q-0.25 0.703125 -0.25 2.03125l0 5.015625l-1.640625 0zm15.540802 3.703125l0 -13.375l1.484375 0l0 1.25q0.53125 -0.734375 1.1875 -1.09375q0.671875 -0.375 1.625 -0.375q1.234375 0 2.171875 0.640625q0.953125 0.625 1.4375 1.796875q0.484375 1.15625 0.484375 2.546875q0 1.484375 -0.53125 2.671875q-0.53125 1.1875 -1.546875 1.828125q-1.015625 0.625 -2.140625 0.625q-0.8125 0 -1.46875 -0.34375q-0.65625 -0.34375 -1.0625 -0.875l0 4.703125l-1.640625 0zm1.484375 -8.484375q0 1.859375 0.75 2.765625q0.765625 0.890625 1.828125 0.890625q1.09375 0 1.875 -0.921875q0.78125 -0.9375 0.78125 -2.875q0 -1.84375 -0.765625 -2.765625q-0.75 -0.921875 -1.8125 -0.921875q-1.046875 0 -1.859375 0.984375q-0.796875 0.96875 -0.796875 2.84375zm8.281967 -0.0625q0 -2.6875 1.484375 -3.96875q1.25 -1.078125 3.046875 -1.078125q2.0 0 3.265625 1.3125q1.265625 1.296875 1.265625 3.609375q0 1.859375 -0.5625 2.9375q-0.5625 1.0625 -1.640625 1.65625q-1.0625 0.59375 -2.328125 0.59375q-2.03125 0 -3.28125 -1.296875q-1.25 -1.3125 -1.25 -3.765625zm1.6875 0q0 1.859375 0.796875 2.796875q0.8125 0.921875 2.046875 0.921875q1.21875 0 2.03125 -0.921875q0.8125 -0.9375 0.8125 -2.84375q0 -1.796875 -0.8125 -2.71875q-0.8125 -0.921875 -2.03125 -0.921875q-1.234375 0 -2.046875 0.921875q-0.796875 0.90625 -0.796875 2.765625zm9.281967 4.84375l0 -9.671875l1.46875 0l0 1.46875q0.5625 -1.03125 1.03125 -1.359375q0.484375 -0.328125 1.0625 -0.328125q0.828125 0 1.6875 0.53125l-0.5625 1.515625q-0.609375 -0.359375 -1.203125 -0.359375q-0.546875 0 -0.96875 0.328125q-0.421875 0.328125 -0.609375 0.890625q-0.28125 0.875 -0.28125 1.921875l0 5.0625l-1.625 0zm9.806427 -1.46875l0.234375 1.453125q-0.6875 0.140625 -1.234375 0.140625q-0.890625 0 -1.390625 -0.28125q-0.484375 -0.28125 -0.6875 -0.734375q-0.203125 -0.46875 -0.203125 -1.9375l0 -5.578125l-1.203125 0l0 -1.265625l1.203125 0l0 -2.390625l1.625 -0.984375l0 3.375l1.65625 0l0 1.265625l-1.65625 0l0 5.671875q0 0.6875 0.078125 0.890625q0.09375 0.203125 0.28125 0.328125q0.203125 0.109375 0.578125 0.109375q0.265625 0 0.71875 -0.0625z" fill-rule="nonzero"/><path fill="#000000" fill-opacity="0.0" d="m108.69029 154.26509l139.2126 0l0 19.496063l-139.2126 0z" fill-rule="evenodd"/><path fill="#000000" d="m128.26534 174.01947q0.578125 0 1.015625 -0.34375q0.4375 -0.359375 0.484375 -0.890625l1.03125 0q-0.03125 0.546875 -0.390625 1.046875q-0.34375 0.484375 -0.921875 0.78125q-0.5625 0.296875 -1.21875 0.296875q-1.2968674 0 -2.0624924 -0.859375q-0.75 -0.875 -0.75 -2.375l0 -0.1875q0 -0.921875 0.328125 -1.640625q0.34375 -0.71875 0.96875 -1.109375q0.640625 -0.40625 1.5156174 -0.40625q1.0625 0 1.765625 0.640625q0.71875 0.625 0.765625 1.65625l-1.03125 0q-0.046875 -0.625 -0.46875 -1.015625q-0.421875 -0.390625 -1.03125 -0.390625q-0.8281174 0 -1.2812424 0.59375q-0.453125 0.59375 -0.453125 1.71875l0 0.203125q0 1.09375 0.453125 1.6875q0.453125 0.59375 1.2812424 0.59375zm3.453125 -2.46875q0 -0.921875 0.359375 -1.671875q0.375 -0.75 1.03125 -1.140625q0.65625 -0.40625 1.484375 -0.40625q1.296875 0 2.09375 0.890625q0.8125 0.890625 0.8125 2.390625l0 0.078125q0 0.921875 -0.359375 1.65625q-0.359375 0.734375 -1.015625 1.15625q-0.65625 0.40625 -1.515625 0.40625q-1.28125 0 -2.09375 -0.890625q-0.796875 -0.90625 -0.796875 -2.390625l0 -0.078125zm1.09375 0.140625q0 1.046875 0.484375 1.6875q0.5 0.640625 1.3125 0.640625q0.828125 0 1.3125 -0.640625q0.484375 -0.65625 0.484375 -1.828125q0 -1.03125 -0.5 -1.671875q-0.484375 -0.65625 -1.3125 -0.65625q-0.796875 0 -1.296875 0.640625q-0.484375 0.625 -0.484375 1.828125zm7.0625 -3.25l0.03125 0.703125q0.6875 -0.8125 1.875 -0.8125q1.328125 0 1.8125 1.015625q0.3125 -0.453125 0.8125 -0.734375q0.515625 -0.28125 1.203125 -0.28125q2.09375 0 2.125 2.203125l0 4.25l-1.078125 0l0 -4.1875q0 -0.671875 -0.3125 -1.0q-0.3125 -0.34375 -1.046875 -0.34375q-0.609375 0 -1.015625 0.359375q-0.390625 0.359375 -0.453125 0.96875l0 4.203125l-1.078125 0l0 -4.15625q0 -1.375 -1.359375 -1.375q-1.0625 0 -1.453125 0.90625l0 4.625l-1.09375 0l0 -6.34375l1.03125 0zm10.517578 0l0.03125 0.703125q0.6875 -0.8125 1.875 -0.8125q1.328125 0 1.8125 1.015625q0.3125 -0.453125 0.8125 -0.734375q0.515625 -0.28125 1.203125 -0.28125q2.09375 0 2.125 2.203125l0 4.25l-1.078125 0l0 -4.1875q0 -0.671875 -0.3125 -1.0q-0.3125 -0.34375 -1.046875 -0.34375q-0.609375 0 -1.015625 0.359375q-0.390625 0.359375 -0.453125 0.96875l0 4.203125l-1.078125 0l0 -4.15625q0 -1.375 -1.359375 -1.375q-1.0625 0 -1.453125 0.90625l0 4.625l-1.09375 0l0 -6.34375l1.03125 0zm13.408203 6.34375q-0.09375 -0.1875 -0.15625 -0.671875q-0.75 0.796875 -1.796875 0.796875q-0.9375 0 -1.546875 -0.53125q-0.59375 -0.53125 -0.59375 -1.359375q0 -0.984375 0.75 -1.53125q0.75 -0.546875 2.125 -0.546875l1.046875 0l0 -0.5q0 -0.5625 -0.34375 -0.890625q-0.328125 -0.34375 -1.0 -0.34375q-0.578125 0 -0.96875 0.296875q-0.390625 0.28125 -0.390625 0.703125l-1.09375 0q0 -0.484375 0.328125 -0.921875q0.34375 -0.4375 0.921875 -0.6875q0.578125 -0.265625 1.265625 -0.265625q1.109375 0 1.71875 0.546875q0.625 0.546875 0.65625 1.5l0 2.921875q0 0.875 0.21875 1.390625l0 0.09375l-1.140625 0zm-1.796875 -0.828125q0.515625 0 0.96875 -0.265625q0.453125 -0.265625 0.65625 -0.6875l0 -1.296875l-0.84375 0q-2.0 0 -2.0 1.171875q0 0.5 0.34375 0.796875q0.34375 0.28125 0.875 0.28125zm5.4335938 -5.515625l0.03125 0.796875q0.734375 -0.90625 1.90625 -0.90625q2.015625 0 2.03125 2.265625l0 4.1875l-1.09375 0l0 -4.203125q0 -0.671875 -0.3125 -1.0q-0.296875 -0.328125 -0.953125 -0.328125q-0.53125 0 -0.9375 0.28125q-0.390625 0.28125 -0.609375 0.734375l0 4.515625l-1.078125 0l0 -6.34375l1.015625 0zm5.3398438 3.125q0 -1.46875 0.6875 -2.34375q0.6875 -0.890625 1.8125 -0.890625q1.109375 0 1.765625 0.75l0 -3.296875l1.078125 0l0 9.0l-1.0 0l-0.046875 -0.6875q-0.65625 0.8125 -1.8125 0.8125q-1.09375 0 -1.796875 -0.90625q-0.6875 -0.90625 -0.6875 -2.359375l0 -0.078125zm1.078125 0.125q0 1.078125 0.4375 1.6875q0.453125 0.609375 1.234375 0.609375q1.03125 0 1.515625 -0.9375l0 -2.90625q-0.484375 -0.890625 -1.5 -0.890625q-0.796875 0 -1.25 0.609375q-0.4375 0.609375 -0.4375 1.828125zm14.269531 0q0 1.4375 -0.65625 2.328125q-0.65625 0.890625 -1.796875 0.890625q-1.15625 0 -1.8125 -0.734375l0 3.046875l-1.078125 0l0 -8.78125l0.984375 0l0.046875 0.703125q0.671875 -0.8125 1.84375 -0.8125q1.140625 0 1.796875 0.859375q0.671875 0.859375 0.671875 2.390625l0 0.109375zm-1.078125 -0.125q0 -1.078125 -0.46875 -1.6875q-0.453125 -0.625 -1.25 -0.625q-0.984375 0 -1.46875 0.859375l0 3.03125q0.484375 0.875 1.484375 0.875q0.78125 0 1.234375 -0.609375q0.46875 -0.625 0.46875 -1.84375zm5.529297 -2.15625q-0.25 -0.03125 -0.53125 -0.03125q-1.078125 0 -1.453125 0.90625l0 4.5l-1.078125 0l0 -6.34375l1.046875 0l0.015625 0.734375q0.53125 -0.84375 1.515625 -0.84375q0.3125 0 0.484375 0.078125l0 1.0zm0.7011719 2.140625q0 -0.921875 0.359375 -1.671875q0.375 -0.75 1.03125 -1.140625q0.65625 -0.40625 1.484375 -0.40625q1.296875 0 2.09375 0.890625q0.8125 0.890625 0.8125 2.390625l0 0.078125q0 0.921875 -0.359375 1.65625q-0.359375 0.734375 -1.015625 1.15625q-0.65625 0.40625 -1.515625 0.40625q-1.28125 0 -2.09375 -0.890625q-0.796875 -0.90625 -0.796875 -2.390625l0 -0.078125zm1.09375 0.140625q0 1.046875 0.484375 1.6875q0.5 0.640625 1.3125 0.640625q0.828125 0 1.3125 -0.640625q0.484375 -0.65625 0.484375 -1.828125q0 -1.03125 -0.5 -1.671875q-0.484375 -0.65625 -1.3125 -0.65625q-0.796875 0 -1.296875 0.640625q-0.484375 0.625 -0.484375 1.828125zm8.125 1.625l1.578125 -4.875l1.109375 0l-2.28125 6.34375l-0.828125 0l-2.296875 -6.34375l1.109375 0l1.609375 4.875zm4.90625 1.46875l-1.078125 0l0 -6.34375l1.078125 0l0 6.34375zm-1.171875 -8.015625q0 -0.265625 0.15625 -0.453125q0.171875 -0.1875 0.484375 -0.1875q0.3125 0 0.46875 0.1875q0.171875 0.1875 0.171875 0.453125q0 0.25 -0.171875 0.4375q-0.15625 0.171875 -0.46875 0.171875q-0.3125 0 -0.484375 -0.171875q-0.15625 -0.1875 -0.15625 -0.4375zm2.6464844 4.796875q0 -1.46875 0.6875 -2.34375q0.6875 -0.890625 1.8125 -0.890625q1.109375 0 1.765625 0.75l0 -3.296875l1.078125 0l0 9.0l-1.0 0l-0.046875 -0.6875q-0.65625 0.8125 -1.8125 0.8125q-1.09375 0 -1.796875 -0.90625q-0.6875 -0.90625 -0.6875 -2.359375l0 -0.078125zm1.078125 0.125q0 1.078125 0.4375 1.6875q0.453125 0.609375 1.234375 0.609375q1.03125 0 1.515625 -0.9375l0 -2.90625q-0.484375 -0.890625 -1.5 -0.890625q-0.796875 0 -1.25 0.609375q-0.4375 0.609375 -0.4375 1.828125zm8.580078 3.21875q-1.296875 0 -2.109375 -0.84375q-0.796875 -0.859375 -0.796875 -2.28125l0 -0.1875q0 -0.953125 0.359375 -1.6875q0.359375 -0.75 1.0 -1.15625q0.65625 -0.421875 1.40625 -0.421875q1.234375 0 1.921875 0.8125q0.6875 0.8125 0.6875 2.328125l0 0.453125l-4.296875 0q0.03125 0.9375 0.546875 1.515625q0.53125 0.578125 1.34375 0.578125q0.5625 0 0.953125 -0.234375q0.40625 -0.234375 0.71875 -0.625l0.65625 0.515625q-0.796875 1.234375 -2.390625 1.234375zm-0.140625 -5.6875q-0.65625 0 -1.109375 0.484375q-0.4375 0.46875 -0.53125 1.328125l3.171875 0l0 -0.078125q-0.046875 -0.828125 -0.453125 -1.28125q-0.390625 -0.453125 -1.078125 -0.453125zm6.935547 0.1875q-0.25 -0.03125 -0.53125 -0.03125q-1.078125 0 -1.453125 0.90625l0 4.5l-1.078125 0l0 -6.34375l1.046875 0l0.015625 0.734375q0.53125 -0.84375 1.515625 -0.84375q0.3125 0 0.484375 0.078125l0 1.0zm4.685547 3.6875q0 -0.4375 -0.34375 -0.671875q-0.328125 -0.25 -1.15625 -0.421875q-0.8125 -0.171875 -1.296875 -0.421875q-0.484375 -0.25 -0.71875 -0.578125q-0.21875 -0.34375 -0.21875 -0.8125q0 -0.78125 0.65625 -1.3125q0.65625 -0.546875 1.6875 -0.546875q1.078125 0 1.734375 0.5625q0.671875 0.546875 0.671875 1.40625l-1.078125 0q0 -0.4375 -0.390625 -0.75q-0.375 -0.328125 -0.9375 -0.328125q-0.59375 0 -0.9375 0.265625q-0.328125 0.25 -0.328125 0.65625q0 0.390625 0.3125 0.59375q0.3125 0.203125 1.125 0.390625q0.8125 0.171875 1.3125 0.421875q0.5 0.25 0.734375 0.609375q0.25 0.359375 0.25 0.859375q0 0.859375 -0.6875 1.375q-0.671875 0.515625 -1.75 0.515625q-0.765625 0 -1.359375 -0.265625q-0.578125 -0.28125 -0.90625 -0.765625q-0.328125 -0.484375 -0.328125 -1.046875l1.078125 0q0.03125 0.546875 0.4375 0.875q0.40625 0.3125 1.078125 0.3125q0.609375 0 0.984375 -0.25q0.375 -0.25 0.375 -0.671875z" fill-rule="nonzero"/><path fill="#000000" fill-opacity="0.0" d="m248.27768 149.50949l62.04724 124.59842l-17.448822 8.692932l-62.04724 -124.598434z" fill-rule="evenodd"/><path fill="#000000" d="m243.62181 181.77943q0.2298584 0.4615631 0.6767273 0.65789795q0.45384216 0.21031189 0.89430237 0.04324341l0.40397644 0.8112335q-0.44052124 0.20201111 -0.9714203 0.117370605q-0.53089905 -0.08465576 -0.9984894 -0.4277649q-0.46064758 -0.32913208 -0.7183533 -0.8466339q-0.50845337 -1.0210266 -0.12962341 -1.9778595q0.39978027 -0.9497986 1.5885468 -1.542038l0.13986206 -0.06967163q0.7412262 -0.36927795 1.4469757 -0.38920593q0.70573425 -0.01991272 1.2641602 0.33032227q0.5793762 0.35725403 0.92066956 1.0426025q0.41789246 0.8392029 0.17903137 1.6564636q-0.21791077 0.82429504 -1.0151367 1.2563782l-0.40397644 -0.8112335q0.4685974 -0.28581238 0.6091156 -0.7747803q0.1614685 -0.48194885 -0.08230591 -0.9714813q-0.32736206 -0.65737915 -0.98394775 -0.7841339q-0.6426239 -0.13372803 -1.5376892 0.31219482l-0.16783142 0.083602905q-0.86709595 0.43199158 -1.1615143 1.0325317q-0.28042603 0.59358215 0.046920776 1.2509613zm3.3090363 1.7726898q0.74124146 -0.36927795 1.4748993 -0.36817932q0.7476349 -0.0058898926 1.3270111 0.35136414q0.5793762 0.35725403 0.9136963 1.0286255q0.50845337 1.0210266 0.10862732 2.0057678q-0.39286804 0.9987335 -1.5816498 1.5909729l-0.05593872 0.027877808q-0.72724915 0.3623047 -1.4539337 0.37521362q-0.7266998 0.012893677 -1.3270264 -0.3513794q-0.57936096 -0.35725403 -0.9206543 -1.0426025q-0.50845337 -1.0210419 -0.11558533 -2.0197601q0.39982605 -0.98475647 1.5746155 -1.5700226l0.05593872 -0.027877808zm0.3339386 0.9159546q-0.8391266 0.41804504 -1.147583 1.0605164q-0.30845642 0.64245605 0.011932373 1.2858429q0.32736206 0.65737915 1.0258636 0.798172q0.71247864 0.13383484 1.6355286 -0.3260193q0.8391266 -0.4180603 1.140625 -1.0744934q0.32243347 -0.6494293 0.0020446777 -1.2928162q-0.3203888 -0.6434021 -1.0188904 -0.78419495q-0.6985016 -0.14079285 -1.6495209 0.33299255zm5.3729706 4.339981l-0.5524597 0.2926941q0.93592834 0.23199463 1.4025879 1.1690979q0.52934265 1.0630035 -0.09376526 1.8447571q0.4889984 0.07060242 0.91474915 0.36473083q0.425766 0.29414368 0.69740295 0.8396301q0.8218689 1.6504211 -0.92637634 2.556305l-3.3704987 1.6791687l-0.42486572 -0.8531952l3.3285522 -1.6582642q0.53144836 -0.26475525 0.6717987 -0.6489105q0.16130066 -0.37712097 -0.13122559 -0.96455383q-0.2368164 -0.47555542 -0.6907196 -0.65093994q-0.43989563 -0.18234253 -0.95028687 0.019561768l-3.3425446 1.6652374l-0.43182373 -0.86717224l3.300583 -1.6443329q1.1048431 -0.5504303 0.5685425 -1.6274109q-0.42488098 -0.8531952 -1.3053589 -0.798584l-3.6781769 1.8324432l-0.431839 -0.86717224l5.034775 -2.5083008l0.4109497 0.8252106zm4.1633606 8.36055l-0.5524597 0.2926941q0.9359436 0.23199463 1.4025879 1.1690979q0.5293579 1.0629883 -0.09375 1.8447571q0.48898315 0.07060242 0.9147339 0.36473083q0.42578125 0.29414368 0.6974182 0.83961487q0.8218689 1.6504364 -0.9263916 2.5563202l-3.3704987 1.6791687l-0.42486572 -0.8531952l3.328537 -1.6582642q0.5314636 -0.26475525 0.67181396 -0.6489105q0.16131592 -0.37712097 -0.13122559 -0.9645691q-0.2368164 -0.47554016 -0.69070435 -0.6509247q-0.4399109 -0.18234253 -0.95028687 0.019561768l-3.3425446 1.6652374l-0.431839 -0.86717224l3.3005981 -1.6443329q1.1048279 -0.5504303 0.5685425 -1.6274109q-0.42489624 -0.8531952 -1.3053589 -0.798584l-3.6781921 1.8324432l-0.431839 -0.86717224l5.034775 -2.5083008l0.4109497 0.8252106zm0.27087402 13.162674q0.11898804 -0.14657593 0.46875 -0.39064026q-0.928833 -0.28788757 -1.3397827 -1.1131134q-0.36915588 -0.74128723 -0.19335938 -1.4398499q0.19674683 -0.6915436 0.8400574 -1.0120544q0.7832031 -0.3901825 1.5162354 -0.0047454834q0.73306274 0.385437 1.2693787 1.4624176l0.4179077 0.8392029l0.4055786 -0.20205688q0.44754028 -0.22296143 0.5809021 -0.62109375q0.13339233 -0.39813232 -0.13128662 -0.92962646q-0.22982788 -0.4615631 -0.6208191 -0.6508179q-0.37698364 -0.19622803 -0.7126465 -0.029006958l-0.43185425 -0.86717224q0.3776245 -0.18812561 0.8595886 -0.096572876q0.49597168 0.08459473 0.92160034 0.4486084q0.43963623 0.35705566 0.7112732 0.9025421q0.43185425 0.86717224 0.24206543 1.5727081q-0.1828003 0.71951294 -0.94503784 1.1167145l-2.3215942 1.156601q-0.68530273 0.34140015 -1.0143127 0.732254l-0.06991577 0.034835815l-0.45272827 -0.9091339zm-0.053131104 -1.7541199q0.20199585 0.4056244 0.592865 0.6647644q0.39086914 0.25914 0.8031311 0.24577332l1.0349426 -0.5155945l-0.33432007 -0.6713562q-0.78707886 -1.5805054 -1.7101135 -1.1206512q-0.4055786 0.20205688 -0.5109863 0.58625793q-0.084472656 0.39120483 0.1244812 0.8108063zm6.52948 2.1406555l-0.6154175 0.34152222q1.0127869 0.21113586 1.4794617 1.1482544q0.79400635 1.5944824 -1.0031433 2.5072784l-3.3285522 1.6582642l-0.43182373 -0.86717224l3.3285522 -1.6582642q0.54541016 -0.27172852 0.6857605 -0.6558838q0.14733887 -0.3701477 -0.11038208 -0.8876648q-0.20895386 -0.41960144 -0.592926 -0.6298218q-0.37698364 -0.19622803 -0.83114624 -0.19689941l-3.5942688 1.7906494l-0.42489624 -0.85317993l5.03479 -2.5083008l0.4039917 0.81121826zm-0.36294556 5.475418q1.1607971 -0.5783081 2.1317139 -0.38119507q0.9848938 0.19013977 1.4306641 1.0852814q0.43878174 0.88116455 0.09512329 1.6982727l2.6292725 -1.3098907l0.43185425 0.8671875l-7.1605835 3.5673523l-0.3970337 -0.7972412l0.52456665 -0.3136902q-0.901062 -0.19700623 -1.3607483 -1.1201324q-0.43182373 -0.86717224 0.0028076172 -1.7819824q0.45562744 -0.90779114 1.6024475 -1.479126l0.06991577 -0.034835815zm0.32696533 0.9019623q-0.8531189 0.4250183 -1.1684875 1.0185394q-0.29440308 0.6005554 0.012054443 1.2159729q0.4109497 0.8252106 1.3262329 0.84054565l2.3215942 -1.156601q0.5182495 -0.74697876 0.12124634 -1.54422q-0.31344604 -0.62939453 -0.9840088 -0.7491913q-0.66363525 -0.10580444 -1.6286316 0.37495422zm5.9313354 6.96846q0.98483276 0.22506714 1.444519 1.1481934q0.79403687 1.5944977 -1.0031433 2.5072937l-3.3285522 1.6582642l-0.43182373 -0.8671875l3.3285522 -1.6582642q0.54541016 -0.27172852 0.685791 -0.65586853q0.14730835 -0.37016296 -0.1104126 -0.8876648q-0.20895386 -0.41960144 -0.5928955 -0.6298218q-0.37701416 -0.19622803 -0.83117676 -0.19689941l-3.5942688 1.7906494l-0.42486572 -0.8531952l7.160553 -3.5673523l0.42489624 0.85317993l-2.7271729 1.3586731zm-0.69573975 9.714432q0.119018555 -0.14657593 0.46878052 -0.39065552q-0.9288635 -0.28788757 -1.3397827 -1.1130981q-0.36917114 -0.7413025 -0.19335938 -1.4398651q0.19671631 -0.6915436 0.8400574 -1.0120392q0.7832031 -0.3901825 1.5162354 -0.0047454834q0.73306274 0.385437 1.2693481 1.4624176l0.4179077 0.8392029l0.4055786 -0.20205688q0.44754028 -0.22296143 0.5809326 -0.62109375q0.13339233 -0.39813232 -0.13128662 -0.92962646q-0.22982788 -0.4615631 -0.6208191 -0.6508179q-0.37701416 -0.19622803 -0.7126465 -0.029006958l-0.43185425 -0.8671875q0.3776245 -0.18812561 0.8595886 -0.09655762q0.49597168 0.08459473 0.92160034 0.4486084q0.43963623 0.35705566 0.7112732 0.90252686q0.43182373 0.8671875 0.24206543 1.5727081q-0.1828003 0.71951294 -0.94503784 1.1167145l-2.3215942 1.156601q-0.68530273 0.3414154 -1.0143127 0.7322693l-0.06994629 0.034835815l-0.45272827 -0.9091339zm-0.053100586 -1.7541199q0.20196533 0.40560913 0.592865 0.66474915q0.39086914 0.25915527 0.8031311 0.24578857l1.0349121 -0.51560974l-0.33432007 -0.6713562q-0.78704834 -1.5805054 -1.710083 -1.120636q-0.4055786 0.20205688 -0.51101685 0.5862427q-0.08444214 0.3912201 0.12451172 0.81082153zm6.5294495 2.1406555l-0.6154175 0.34150696q1.0128174 0.21115112 1.4794922 1.1482544q0.79400635 1.5944824 -1.0031433 2.5072784l-3.3285522 1.6582794l-0.43185425 -0.8671875l3.3285522 -1.6582642q0.5454407 -0.27172852 0.685791 -0.65586853q0.14730835 -0.37016296 -0.11038208 -0.8876648q-0.20895386 -0.41960144 -0.592926 -0.6298218q-0.37698364 -0.19622803 -0.83117676 -0.19689941l-3.5942688 1.7906494l-0.42486572 -0.8531952l5.03479 -2.5083008l0.40396118 0.8112335zm-0.36291504 5.475403q1.1607971 -0.5783081 2.1316833 -0.38119507q0.9849243 0.19013977 1.4306641 1.0852814q0.43881226 0.88116455 0.09515381 1.698288l2.6292725 -1.3098907l0.43182373 0.86717224l-7.1605835 3.5673676l-0.39700317 -0.7972412l0.52453613 -0.31370544q-0.9010315 -0.19699097 -1.3607178 -1.1201172q-0.43185425 -0.8671875 0.0028076172 -1.7819977q0.45559692 -0.90779114 1.602417 -1.479126l0.06994629 -0.034835815zm0.32696533 0.9019623q-0.8531189 0.4250183 -1.1684875 1.0185547q-0.29440308 0.60054016 0.012054443 1.2159576q0.4109192 0.82522583 1.3262329 0.84054565l2.3215942 -1.156601q0.5182495 -0.74697876 0.12124634 -1.54422q-0.31344604 -0.62939453 -0.9840393 -0.7491913q-0.66360474 -0.10580444 -1.6286011 0.37495422zm0.363739 6.8996277l-0.43182373 -0.86717224l7.1605835 -3.5673676l0.43182373 0.86717224l-7.1605835 3.5673676zm1.6260071 3.510559q-0.50845337 -1.0210266 -0.15756226 -1.9988556q0.36489868 -0.98480225 1.4837646 -1.5422058l0.15383911 -0.0766449q0.7552185 -0.37623596 1.4819031 -0.3891449q0.7336426 0.001083374 1.3270264 0.3513794q0.5933533 0.35028076 0.88586426 0.9377289q0.49453735 0.99305725 0.1088562 1.8660126q-0.3717041 0.86598206 -1.5744629 1.4651947l-0.3496399 0.17417908l-1.6994629 -3.4127502q-0.7482605 0.39022827 -1.000824 1.0397644q-0.23858643 0.64256287 0.07485962 1.2719574q0.22982788 0.4615631 0.5648804 0.6786957q0.3420105 0.23110962 0.7680969 0.31559753l-0.14089966 0.7335663q-1.2924194 -0.14167786 -1.926239 -1.4144745zm4.4615784 -2.3623962q-0.25769043 -0.5175171 -0.8094177 -0.6790619q-0.5517578 -0.1615448 -1.2788391 0.095947266l1.2537231 2.5176086l0.06991577 -0.034835815q0.6364441 -0.36943054 0.8258667 -0.86531067q0.21038818 -0.48886108 -0.06124878 -1.0343475zm2.5925903 5.591797q-0.06954956 -0.20974731 -0.18795776 -0.44752502q-0.4178772 -0.8392029 -1.2843933 -0.79156494l-3.5802917 1.7836761l-0.42486572 -0.8531952l5.03479 -2.5083008l0.4179077 0.8392029l-0.56643677 0.2996521q0.880249 0.0851593 1.2633362 0.85443115q0.12536621 0.25177002 0.12509155 0.4264679l-0.7971802 0.39715576zm-1.0718384 5.173523q0.3496399 -0.17419434 0.3991089 -0.5305176q0.07043457 -0.3493042 -0.11706543 -1.076355q-0.1875 -0.7270508 -0.18673706 -1.216217q0.007751465 -0.4751892 0.18292236 -0.78941345q0.18917847 -0.321167 0.5527954 -0.50231934q0.6293335 -0.31355286 1.3066101 -0.005065918q0.6982422 0.31550598 1.1022034 1.1267242q0.42486572 0.85321045 0.2420044 1.607666q-0.16189575 0.7614746 -0.86117554 1.1098328l-0.43185425 -0.867157q0.36364746 -0.18115234 0.4621582 -0.61428833q0.10546875 -0.41912842 -0.12438965 -0.8807068q-0.2298584 -0.46154785 -0.57196045 -0.62280273q-0.328125 -0.16818237 -0.66378784 -9.765625E-4q-0.30767822 0.1532898 -0.3571167 0.4746704q-0.0284729 0.32839966 0.15206909 1.0414734q0.18054199 0.71307373 0.165802 1.209198q0.006164551 0.5031738 -0.17602539 0.8383484q-0.18218994 0.33514404 -0.58776855 0.5372009q-0.6713257 0.33444214 -1.3625183 -0.0020141602q-0.67025757 -0.32943726 -1.1020813 -1.1966248q-0.2994995 -0.6014099 -0.3265381 -1.181488q-0.006072998 -0.57302856 0.23919678 -1.026886q0.26623535 -0.4468689 0.71377563 -0.6698303l0.42486572 0.85317993q-0.4196167 0.24398804 -0.51116943 0.6911011q-0.091552734 0.44711304 0.17312622 0.9786072q0.24377441 0.48953247 0.58584595 0.68569946q0.34207153 0.19616699 0.67770386 0.028961182z" fill-rule="nonzero"/><path fill="#f4cccc" d="m130.66463 265.5328l20.251968 -40.50392l53.007874 0l20.251968 40.50392l-20.251968 40.503906l-53.007874 0z" fill-rule="evenodd"/><path stroke="#e6b8af" stroke-width="1.0" stroke-linejoin="round" stroke-linecap="butt" d="m130.66463 265.5328l20.251968 -40.50392l53.007874 0l20.251968 40.50392l-20.251968 40.503906l-53.007874 0z" fill-rule="evenodd"/><path fill="#000000" d="m156.45793 262.69717q0.375 0 0.65625 -0.234375q0.296875 -0.234375 0.328125 -0.578125l0.6875 0q-0.015625 0.359375 -0.25 0.6875q-0.234375 0.328125 -0.625 0.53125q-0.375 0.1875 -0.796875 0.1875q-0.875 0 -1.390625 -0.578125q-0.5 -0.578125 -0.5 -1.578125l0 -0.125q0 -0.609375 0.21875 -1.09375q0.234375 -0.484375 0.65625 -0.75q0.421875 -0.265625 1.0 -0.265625q0.71875 0 1.1875 0.4375q0.46875 0.421875 0.5 1.09375l-0.6875 0q-0.03125 -0.40625 -0.3125 -0.671875q-0.265625 -0.265625 -0.6875 -0.265625q-0.546875 0 -0.859375 0.40625q-0.296875 0.390625 -0.296875 1.140625l0 0.140625q0 0.734375 0.296875 1.125q0.3125 0.390625 0.875 0.390625zm2.296875 -1.640625q0 -0.625 0.234375 -1.109375q0.25 -0.5 0.6875 -0.765625q0.4375 -0.28125 1.0 -0.28125q0.859375 0 1.390625 0.609375q0.53125 0.59375 0.53125 1.578125l0 0.0625q0 0.609375 -0.234375 1.109375q-0.234375 0.484375 -0.671875 0.765625q-0.4375 0.265625 -1.015625 0.265625q-0.859375 0 -1.390625 -0.59375q-0.53125 -0.609375 -0.53125 -1.59375l0 -0.046875zm0.71875 0.09375q0 0.703125 0.328125 1.125q0.328125 0.421875 0.875 0.421875q0.546875 0 0.875 -0.421875q0.328125 -0.4375 0.328125 -1.21875q0 -0.6875 -0.328125 -1.125q-0.328125 -0.4375 -0.875 -0.4375q-0.546875 0 -0.875 0.4375q-0.328125 0.421875 -0.328125 1.21875zm4.71875 -2.171875l0.015625 0.46875q0.46875 -0.546875 1.25 -0.546875q0.890625 0 1.203125 0.6875q0.21875 -0.3125 0.546875 -0.5q0.34375 -0.1875 0.8125 -0.1875q1.390625 0 1.40625 1.484375l0 2.828125l-0.71875 0l0 -2.796875q0 -0.453125 -0.21875 -0.671875q-0.203125 -0.21875 -0.6875 -0.21875q-0.40625 0 -0.671875 0.234375q-0.265625 0.234375 -0.296875 0.640625l0 2.8125l-0.734375 0l0 -2.765625q0 -0.921875 -0.90625 -0.921875q-0.703125 0 -0.96875 0.59375l0 3.09375l-0.71875 0l0 -4.234375l0.6875 0zm7.0117188 0l0.015625 0.46875q0.46875 -0.546875 1.25 -0.546875q0.890625 0 1.203125 0.6875q0.21875 -0.3125 0.546875 -0.5q0.34375 -0.1875 0.8125 -0.1875q1.390625 0 1.40625 1.484375l0 2.828125l-0.71875 0l0 -2.796875q0 -0.453125 -0.21875 -0.671875q-0.203125 -0.21875 -0.6875 -0.21875q-0.40625 0 -0.671875 0.234375q-0.265625 0.234375 -0.296875 0.640625l0 2.8125l-0.734375 0l0 -2.765625q0 -0.921875 -0.90625 -0.921875q-0.703125 0 -0.96875 0.59375l0 3.09375l-0.71875 0l0 -4.234375l0.6875 0zm8.933594 4.234375q-0.0625 -0.125 -0.09375 -0.453125q-0.515625 0.53125 -1.203125 0.53125q-0.625 0 -1.03125 -0.34375q-0.40625 -0.359375 -0.40625 -0.90625q0 -0.65625 0.5 -1.015625q0.515625 -0.375 1.421875 -0.375l0.703125 0l0 -0.328125q0 -0.390625 -0.234375 -0.609375q-0.21875 -0.21875 -0.65625 -0.21875q-0.390625 0 -0.65625 0.203125q-0.265625 0.1875 -0.265625 0.453125l-0.71875 0q0 -0.3125 0.21875 -0.609375q0.234375 -0.296875 0.609375 -0.46875q0.390625 -0.171875 0.84375 -0.171875q0.734375 0 1.140625 0.375q0.421875 0.359375 0.4375 1.0l0 1.953125q0 0.578125 0.15625 0.921875l0 0.0625l-0.765625 0zm-1.203125 -0.546875q0.34375 0 0.640625 -0.171875q0.3125 -0.1875 0.453125 -0.46875l0 -0.859375l-0.5625 0q-1.328125 0 -1.328125 0.765625q0 0.34375 0.21875 0.546875q0.234375 0.1875 0.578125 0.1875zm3.6328125 -3.6875l0.015625 0.53125q0.484375 -0.609375 1.265625 -0.609375q1.34375 0 1.359375 1.515625l0 2.796875l-0.71875 0l0 -2.796875q-0.015625 -0.453125 -0.21875 -0.671875q-0.203125 -0.21875 -0.640625 -0.21875q-0.34375 0 -0.609375 0.1875q-0.265625 0.1875 -0.421875 0.484375l0 3.015625l-0.71875 0l0 -4.234375l0.6875 0zm3.5546875 2.078125q0 -0.96875 0.453125 -1.5625q0.46875 -0.59375 1.21875 -0.59375q0.734375 0 1.171875 0.515625l0 -2.203125l0.71875 0l0 6.0l-0.65625 0l-0.046875 -0.453125q-0.421875 0.53125 -1.203125 0.53125q-0.734375 0 -1.203125 -0.59375q-0.453125 -0.609375 -0.453125 -1.578125l0 -0.0625zm0.71875 0.09375q0 0.71875 0.296875 1.125q0.296875 0.40625 0.828125 0.40625q0.6875 0 1.0 -0.625l0 -1.9375q-0.328125 -0.59375 -1.0 -0.59375q-0.53125 0 -0.828125 0.40625q-0.296875 0.40625 -0.296875 1.21875zm6.4335938 0.9375q0 -0.296875 -0.234375 -0.453125q-0.21875 -0.15625 -0.765625 -0.265625q-0.546875 -0.125 -0.875 -0.28125q-0.3125 -0.171875 -0.46875 -0.390625q-0.15625 -0.234375 -0.15625 -0.546875q0 -0.53125 0.4375 -0.890625q0.4375 -0.359375 1.125 -0.359375q0.71875 0 1.15625 0.375q0.453125 0.375 0.453125 0.953125l-0.71875 0q0 -0.296875 -0.25 -0.515625q-0.25 -0.21875 -0.640625 -0.21875q-0.390625 0 -0.625 0.171875q-0.21875 0.171875 -0.21875 0.453125q0 0.265625 0.203125 0.40625q0.21875 0.125 0.75 0.25q0.546875 0.109375 0.875 0.28125q0.34375 0.171875 0.5 0.40625q0.171875 0.234375 0.171875 0.578125q0 0.5625 -0.453125 0.90625q-0.453125 0.34375 -1.171875 0.34375q-0.515625 0 -0.90625 -0.171875q-0.390625 -0.1875 -0.609375 -0.5q-0.21875 -0.328125 -0.21875 -0.703125l0.71875 0q0.015625 0.359375 0.28125 0.578125q0.28125 0.203125 0.734375 0.203125q0.40625 0 0.65625 -0.15625q0.25 -0.171875 0.25 -0.453125zm3.7773438 1.609375l-0.609375 0l2.375 -6.171875l0.609375 0l-2.375 6.171875z" fill-rule="nonzero"/><path fill="#000000" d="m155.53606 273.2128l-0.71875 0l0 -4.234375l0.71875 0l0 4.234375zm-0.78125 -5.34375q0 -0.1875 0.109375 -0.296875q0.109375 -0.125 0.3125 -0.125q0.21875 0 0.328125 0.125q0.109375 0.109375 0.109375 0.296875q0 0.171875 -0.109375 0.296875q-0.109375 0.109375 -0.328125 0.109375q-0.203125 0 -0.3125 -0.109375q-0.109375 -0.125 -0.109375 -0.296875zm2.6289062 1.109375l0.015625 0.53125q0.484375 -0.609375 1.265625 -0.609375q1.34375 0 1.359375 1.515625l0 2.796875l-0.71875 0l0 -2.796875q-0.015625 -0.453125 -0.21875 -0.671875q-0.203125 -0.21875 -0.640625 -0.21875q-0.34375 0 -0.609375 0.1875q-0.265625 0.1875 -0.421875 0.484375l0 3.015625l-0.71875 0l0 -4.234375l0.6875 0zm4.7109375 -1.015625l0 1.015625l0.78125 0l0 0.5625l-0.78125 0l0 2.625q0 0.25 0.09375 0.375q0.109375 0.125 0.375 0.125q0.125 0 0.34375 -0.046875l0 0.59375q-0.296875 0.078125 -0.5625 0.078125q-0.484375 0 -0.734375 -0.296875q-0.234375 -0.296875 -0.234375 -0.828125l0 -2.625l-0.78125 0l0 -0.5625l0.78125 0l0 -1.015625l0.71875 0zm3.3789062 5.328125q-0.859375 0 -1.40625 -0.5625q-0.53125 -0.5625 -0.53125 -1.515625l0 -0.125q0 -0.640625 0.234375 -1.125q0.25 -0.5 0.671875 -0.78125q0.4375 -0.28125 0.953125 -0.28125q0.8125 0 1.265625 0.546875q0.46875 0.546875 0.46875 1.5625l0 0.296875l-2.859375 0q0.015625 0.625 0.359375 1.015625q0.34375 0.375 0.890625 0.375q0.375 0 0.640625 -0.15625q0.265625 -0.15625 0.46875 -0.40625l0.4375 0.34375q-0.53125 0.8125 -1.59375 0.8125zm-0.078125 -3.796875q-0.4375 0 -0.734375 0.328125q-0.296875 0.3125 -0.375 0.890625l2.125 0l0 -0.0625q-0.03125 -0.546875 -0.296875 -0.84375q-0.265625 -0.3125 -0.71875 -0.3125zm4.6132812 0.140625q-0.171875 -0.03125 -0.359375 -0.03125q-0.703125 0 -0.96875 0.609375l0 3.0l-0.71875 0l0 -4.234375l0.703125 0l0.015625 0.5q0.359375 -0.578125 1.0 -0.578125q0.21875 0 0.328125 0.0625l0 0.671875zm1.0195312 3.578125l0 -3.671875l-0.671875 0l0 -0.5625l0.671875 0l0 -0.421875q0 -0.6875 0.359375 -1.046875q0.359375 -0.375 1.03125 -0.375q0.25 0 0.5 0.0625l-0.046875 0.578125q-0.1875 -0.03125 -0.390625 -0.03125q-0.34375 0 -0.546875 0.203125q-0.1875 0.203125 -0.1875 0.59375l0 0.4375l0.90625 0l0 0.5625l-0.90625 0l0 3.671875l-0.71875 0zm5.0273438 0q-0.0625 -0.125 -0.09375 -0.453125q-0.515625 0.53125 -1.203125 0.53125q-0.625 0 -1.03125 -0.34375q-0.40625 -0.359375 -0.40625 -0.90625q0 -0.65625 0.5 -1.015625q0.515625 -0.375 1.421875 -0.375l0.703125 0l0 -0.328125q0 -0.390625 -0.234375 -0.609375q-0.21875 -0.21875 -0.65625 -0.21875q-0.390625 0 -0.65625 0.203125q-0.265625 0.1875 -0.265625 0.453125l-0.71875 0q0 -0.3125 0.21875 -0.609375q0.234375 -0.296875 0.609375 -0.46875q0.390625 -0.171875 0.84375 -0.171875q0.734375 0 1.140625 0.375q0.421875 0.359375 0.4375 1.0l0 1.953125q0 0.578125 0.15625 0.921875l0 0.0625l-0.765625 0zm-1.203125 -0.546875q0.34375 0 0.640625 -0.171875q0.3125 -0.1875 0.453125 -0.46875l0 -0.859375l-0.5625 0q-1.328125 0 -1.328125 0.765625q0 0.34375 0.21875 0.546875q0.234375 0.1875 0.578125 0.1875zm4.6484375 0.03125q0.375 0 0.65625 -0.234375q0.296875 -0.234375 0.328125 -0.578125l0.6875 0q-0.015625 0.359375 -0.25 0.6875q-0.234375 0.328125 -0.625 0.53125q-0.375 0.1875 -0.796875 0.1875q-0.875 0 -1.390625 -0.578125q-0.5 -0.578125 -0.5 -1.578125l0 -0.125q0 -0.609375 0.21875 -1.09375q0.234375 -0.484375 0.65625 -0.75q0.421875 -0.265625 1.0 -0.265625q0.71875 0 1.1875 0.4375q0.46875 0.421875 0.5 1.09375l-0.6875 0q-0.03125 -0.40625 -0.3125 -0.671875q-0.265625 -0.265625 -0.6875 -0.265625q-0.546875 0 -0.859375 0.40625q-0.296875 0.390625 -0.296875 1.140625l0 0.140625q0 0.734375 0.296875 1.125q0.3125 0.390625 0.875 0.390625zm4.234375 0.59375q-0.859375 0 -1.40625 -0.5625q-0.53125 -0.5625 -0.53125 -1.515625l0 -0.125q0 -0.640625 0.234375 -1.125q0.25 -0.5 0.671875 -0.78125q0.4375 -0.28125 0.953125 -0.28125q0.8125 0 1.265625 0.546875q0.46875 0.546875 0.46875 1.5625l0 0.296875l-2.859375 0q0.015625 0.625 0.359375 1.015625q0.34375 0.375 0.890625 0.375q0.375 0 0.640625 -0.15625q0.265625 -0.15625 0.46875 -0.40625l0.4375 0.34375q-0.53125 0.8125 -1.59375 0.8125zm-0.078125 -3.796875q-0.4375 0 -0.734375 0.328125q-0.296875 0.3125 -0.375 0.890625l2.125 0l0 -0.0625q-0.03125 -0.546875 -0.296875 -0.84375q-0.265625 -0.3125 -0.71875 -0.3125zm5.0351562 2.59375q0 -0.296875 -0.234375 -0.453125q-0.21875 -0.15625 -0.765625 -0.265625q-0.546875 -0.125 -0.875 -0.28125q-0.3125 -0.171875 -0.46875 -0.390625q-0.15625 -0.234375 -0.15625 -0.546875q0 -0.53125 0.4375 -0.890625q0.4375 -0.359375 1.125 -0.359375q0.71875 0 1.15625 0.375q0.453125 0.375 0.453125 0.953125l-0.71875 0q0 -0.296875 -0.25 -0.515625q-0.25 -0.21875 -0.640625 -0.21875q-0.390625 0 -0.625 0.171875q-0.21875 0.171875 -0.21875 0.453125q0 0.265625 0.203125 0.40625q0.21875 0.125 0.75 0.25q0.546875 0.109375 0.875 0.28125q0.34375 0.171875 0.5 0.40625q0.171875 0.234375 0.171875 0.578125q0 0.5625 -0.453125 0.90625q-0.453125 0.34375 -1.171875 0.34375q-0.515625 0 -0.90625 -0.171875q-0.390625 -0.1875 -0.609375 -0.5q-0.21875 -0.328125 -0.21875 -0.703125l0.71875 0q0.015625 0.359375 0.28125 0.578125q0.28125 0.203125 0.734375 0.203125q0.40625 0 0.65625 -0.15625q0.25 -0.171875 0.25 -0.453125z" fill-rule="nonzero"/><path fill="#cfe2f3" d="m340.0 121.00787l197.00787 0l0 96.031494l-197.00787 0z" fill-rule="evenodd"/><path stroke="#cfe2f3" stroke-width="1.0" stroke-linejoin="round" stroke-linecap="butt" d="m340.0 121.00787l197.00787 0l0 96.031494l-197.00787 0z" fill-rule="evenodd"/><path fill="#000000" d="m368.98102 132.19862q0.71875 0 1.40625 0.375q0.6875 0.359375 1.0625 1.0625q0.390625 0.6875 0.390625 1.421875q0 1.1875 -0.84375 2.03125q-0.828125 0.84375 -2.015625 0.84375q-1.1875 0 -2.03125 -0.84375q-0.84375 -0.84375 -0.84375 -2.03125q0 -0.75 0.375 -1.4375q0.390625 -0.6875 1.078125 -1.046875q0.703125 -0.375 1.421875 -0.375z" fill-rule="nonzero"/><path fill="#000000" d="m403.32812 136.35487l-3.96875 0l-0.890625 2.46875l-1.28125 0l3.609375 -9.46875l1.09375 0l3.625 9.46875l-1.28125 0l-0.90625 -2.46875zm-3.59375 -1.03125l3.234375 0l-1.625 -4.4375l-1.609375 4.4375zm8.303894 -0.203125l0 3.703125l-1.25 0l0 -9.46875l3.5 0q1.5625 0 2.4375 0.796875q0.875 0.78125 0.875 2.09375q0 1.375 -0.859375 2.125q-0.859375 0.75 -2.46875 0.75l-2.234375 0zm0 -1.03125l2.25 0q1.0 0 1.53125 -0.46875q0.546875 -0.46875 0.546875 -1.359375q0 -0.84375 -0.546875 -1.34375q-0.53125 -0.515625 -1.453125 -0.546875l-2.328125 0l0 3.71875zm8.501923 4.734375l-1.25 0l0 -9.46875l1.25 0l0 9.46875zm5.346283 -3.84375q0 -1.46875 0.390625 -2.828125q0.40625 -1.359375 1.1875 -2.453125q0.78125 -1.109375 1.609375 -1.5625l0.25 0.78125q-0.953125 0.734375 -1.5625 2.234375q-0.59375 1.5 -0.65625 3.34375l-0.015625 0.5625q0 2.515625 0.921875 4.359375q0.5625 1.109375 1.3125 1.734375l-0.25 0.734375q-0.859375 -0.484375 -1.640625 -1.625q-1.546875 -2.203125 -1.546875 -5.28125zm10.571106 0.40625q0 1.609375 -0.75 2.59375q-0.734375 0.96875 -1.984375 0.96875q-1.328125 0 -2.0625 -0.9375l-0.0625 0.8125l-1.109375 0l0 -10.0l1.203125 0l0 3.734375q0.734375 -0.90625 2.015625 -0.90625q1.28125 0 2.015625 0.96875q0.734375 0.96875 0.734375 2.65625l0 0.109375zm-1.203125 -0.140625q0 -1.234375 -0.484375 -1.90625q-0.46875 -0.671875 -1.359375 -0.671875q-1.1875 0 -1.71875 1.109375l0 3.046875q0.5625 1.109375 1.734375 1.109375q0.859375 0 1.34375 -0.671875q0.484375 -0.671875 0.484375 -2.015625zm7.0713196 3.578125q-0.109375 -0.203125 -0.171875 -0.734375q-0.84375 0.859375 -2.015625 0.859375q-1.03125 0 -1.703125 -0.578125q-0.671875 -0.59375 -0.671875 -1.5q0 -1.09375 0.828125 -1.703125q0.84375 -0.609375 2.359375 -0.609375l1.171875 0l0 -0.5625q0 -0.625 -0.375 -1.0q-0.375 -0.375 -1.109375 -0.375q-0.640625 0 -1.078125 0.328125q-0.4375 0.328125 -0.4375 0.78125l-1.203125 0q0 -0.515625 0.359375 -1.0q0.375 -0.5 1.015625 -0.78125q0.65625 -0.296875 1.421875 -0.296875q1.21875 0 1.90625 0.609375q0.6875 0.609375 0.71875 1.671875l0 3.25q0 0.96875 0.234375 1.53125l0 0.109375l-1.25 0zm-2.0 -0.921875q0.5625 0 1.0625 -0.28125q0.515625 -0.296875 0.734375 -0.765625l0 -1.453125l-0.9375 0q-2.21875 0 -2.21875 1.296875q0 0.5625 0.375 0.890625q0.390625 0.3125 0.984375 0.3125zm6.5310364 -7.828125l0 1.703125l1.3125 0l0 0.9375l-1.3125 0l0 4.359375q0 0.421875 0.171875 0.640625q0.171875 0.21875 0.59375 0.21875q0.21875 0 0.578125 -0.078125l0 0.96875q-0.46875 0.125 -0.921875 0.125q-0.8125 0 -1.21875 -0.484375q-0.40625 -0.484375 -0.40625 -1.390625l0 -4.359375l-1.28125 0l0 -0.9375l1.28125 0l0 -1.703125l1.203125 0zm5.54126 7.890625q0.640625 0 1.125 -0.390625q0.484375 -0.390625 0.53125 -0.96875l1.140625 0q-0.03125 0.609375 -0.421875 1.15625q-0.375 0.546875 -1.015625 0.875q-0.640625 0.3125 -1.359375 0.3125q-1.4375 0 -2.296875 -0.953125q-0.84375 -0.96875 -0.84375 -2.625l0 -0.203125q0 -1.03125 0.375 -1.828125q0.390625 -0.796875 1.09375 -1.234375q0.703125 -0.453125 1.671875 -0.453125q1.171875 0 1.953125 0.71875q0.796875 0.703125 0.84375 1.828125l-1.140625 0q-0.046875 -0.671875 -0.515625 -1.109375q-0.46875 -0.453125 -1.140625 -0.453125q-0.921875 0 -1.4375 0.671875q-0.5 0.65625 -0.5 1.90625l0 0.21875q0 1.21875 0.5 1.875q0.515625 0.65625 1.4375 0.65625zm5.3514404 -5.328125q0.8125 -0.984375 2.09375 -0.984375q2.234375 0 2.25 2.515625l0 4.65625l-1.203125 0l0 -4.65625q-0.015625 -0.765625 -0.359375 -1.125q-0.328125 -0.375 -1.0625 -0.375q-0.578125 0 -1.03125 0.3125q-0.4375 0.3125 -0.6875 0.828125l0 5.015625l-1.203125 0l0 -10.0l1.203125 0l0 3.8125zm10.577881 -0.859375l0.03125 0.78125q0.765625 -0.90625 2.09375 -0.90625q1.46875 0 2.0 1.125q0.359375 -0.5 0.921875 -0.8125q0.5625 -0.3125 1.328125 -0.3125q2.3125 0 2.359375 2.453125l0 4.71875l-1.203125 0l0 -4.640625q0 -0.765625 -0.34375 -1.140625q-0.34375 -0.375 -1.171875 -0.375q-0.65625 0 -1.109375 0.40625q-0.4375 0.40625 -0.515625 1.078125l0 4.671875l-1.203125 0l0 -4.609375q0 -1.546875 -1.5 -1.546875q-1.1875 0 -1.625 1.015625l0 5.140625l-1.203125 0l0 -7.046875l1.140625 0zm10.228516 3.46875q0 -1.046875 0.40625 -1.875q0.40625 -0.828125 1.125 -1.265625q0.734375 -0.453125 1.65625 -0.453125q1.4375 0 2.328125 1.0q0.890625 0.984375 0.890625 2.640625l0 0.09375q0 1.015625 -0.390625 1.84375q-0.390625 0.8125 -1.125 1.265625q-0.734375 0.453125 -1.6875 0.453125q-1.421875 0 -2.3125 -0.984375q-0.890625 -1.0 -0.890625 -2.640625l0 -0.078125zm1.203125 0.140625q0 1.171875 0.546875 1.875q0.546875 0.703125 1.453125 0.703125q0.921875 0 1.453125 -0.71875q0.546875 -0.71875 0.546875 -2.0q0 -1.171875 -0.546875 -1.890625q-0.546875 -0.71875 -1.46875 -0.71875q-0.890625 0 -1.4375 0.71875q-0.546875 0.703125 -0.546875 2.03125zm6.4293213 -0.140625q0 -1.625 0.765625 -2.609375q0.765625 -0.984375 2.0 -0.984375q1.25 0 1.96875 0.84375l0 -3.671875l1.203125 0l0 10.0l-1.109375 0l-0.0625 -0.75q-0.71875 0.875 -2.0 0.875q-1.234375 0 -2.0 -1.0q-0.765625 -1.0 -0.765625 -2.609375l0 -0.09375zm1.203125 0.140625q0 1.1875 0.484375 1.875q0.5 0.671875 1.375 0.671875q1.140625 0 1.671875 -1.03125l0 -3.234375q-0.546875 -1.0 -1.65625 -1.0q-0.890625 0 -1.390625 0.6875q-0.484375 0.6875 -0.484375 2.03125zm9.516602 3.5625q-1.421875 0 -2.328125 -0.9375q-0.890625 -0.9375 -0.890625 -2.515625l0 -0.21875q0 -1.046875 0.390625 -1.859375q0.40625 -0.828125 1.125 -1.296875q0.71875 -0.46875 1.5625 -0.46875q1.375 0 2.125 0.90625q0.765625 0.90625 0.765625 2.59375l0 0.5l-4.765625 0q0.015625 1.03125 0.59375 1.671875q0.59375 0.640625 1.484375 0.640625q0.640625 0 1.078125 -0.25q0.453125 -0.265625 0.78125 -0.6875l0.734375 0.5625q-0.875 1.359375 -2.65625 1.359375zm-0.140625 -6.3125q-0.734375 0 -1.234375 0.53125q-0.484375 0.53125 -0.609375 1.484375l3.53125 0l0 -0.078125q-0.046875 -0.921875 -0.5 -1.421875q-0.4375 -0.515625 -1.1875 -0.515625zm7.061035 2.40625q0 1.453125 -0.390625 2.78125q-0.375 1.328125 -1.15625 2.453125q-0.78125 1.125 -1.640625 1.609375l-0.25 -0.734375q1.0 -0.765625 1.609375 -2.375q0.609375 -1.625 0.625 -3.609375l0 -0.203125q0 -1.359375 -0.296875 -2.53125q-0.28125 -1.1875 -0.796875 -2.109375q-0.5 -0.9375 -1.140625 -1.453125l0.25 -0.734375q0.859375 0.46875 1.640625 1.59375q0.78125 1.109375 1.15625 2.453125q0.390625 1.328125 0.390625 2.859375z" fill-rule="nonzero"/><path fill="#000000" d="m368.98102 148.19862q0.71875 0 1.40625 0.375q0.6875 0.359375 1.0625 1.0625q0.390625 0.6875 0.390625 1.421875q0 1.1875 -0.84375 2.03125q-0.828125 0.84375 -2.015625 0.84375q-1.1875 0 -2.03125 -0.84375q-0.84375 -0.84375 -0.84375 -2.03125q0 -0.75 0.375 -1.4375q0.390625 -0.6875 1.078125 -1.046875q0.703125 -0.375 1.421875 -0.375z" fill-rule="nonzero"/><path fill="#000000" d="m403.32812 152.35487l-3.96875 0l-0.890625 2.46875l-1.28125 0l3.609375 -9.46875l1.09375 0l3.625 9.46875l-1.28125 0l-0.90625 -2.46875zm-3.59375 -1.03125l3.234375 0l-1.625 -4.4375l-1.609375 4.4375zm8.303894 -0.203125l0 3.703125l-1.25 0l0 -9.46875l3.5 0q1.5625 0 2.4375 0.796875q0.875 0.78125 0.875 2.09375q0 1.375 -0.859375 2.125q-0.859375 0.75 -2.46875 0.75l-2.234375 0zm0 -1.03125l2.25 0q1.0 0 1.53125 -0.46875q0.546875 -0.46875 0.546875 -1.359375q0 -0.84375 -0.546875 -1.34375q-0.53125 -0.515625 -1.453125 -0.546875l-2.328125 0l0 3.71875zm8.501923 4.734375l-1.25 0l0 -9.46875l1.25 0l0 9.46875z" fill-rule="nonzero"/><path fill="#000000" d="m368.98102 164.19862q0.71875 0 1.40625 0.375q0.6875 0.359375 1.0625 1.0625q0.390625 0.6875 0.390625 1.421875q0 1.1875 -0.84375 2.03125q-0.828125 0.84375 -2.015625 0.84375q-1.1875 0 -2.03125 -0.84375q-0.84375 -0.84375 -0.84375 -2.03125q0 -0.75 0.375 -1.4375q0.390625 -0.6875 1.078125 -1.046875q0.703125 -0.375 1.421875 -0.375z" fill-rule="nonzero"/><path fill="#000000" d="m399.4375 170.82362l-1.25 0l0 -9.46875l1.25 0l0 9.46875zm3.234253 -7.046875l0.03125 0.78125q0.765625 -0.90625 2.09375 -0.90625q1.46875 0 2.0 1.125q0.359375 -0.5 0.921875 -0.8125q0.5625 -0.3125 1.328125 -0.3125q2.3125 0 2.359375 2.453125l0 4.71875l-1.203125 0l0 -4.640625q0 -0.765625 -0.34375 -1.140625q-0.34375 -0.375 -1.171875 -0.375q-0.65625 0 -1.109375 0.40625q-0.4375 0.40625 -0.515625 1.078125l0 4.671875l-1.203125 0l0 -4.609375q0 -1.546875 -1.5 -1.546875q-1.1875 0 -1.625 1.015625l0 5.140625l-1.203125 0l0 -7.046875l1.140625 0zm16.49414 3.609375q0 1.609375 -0.734375 2.59375q-0.734375 0.96875 -2.0 0.96875q-1.28125 0 -2.015625 -0.8125l0 3.390625l-1.203125 0l0 -9.75l1.109375 0l0.046875 0.78125q0.75 -0.90625 2.046875 -0.90625q1.265625 0 2.0 0.953125q0.75 0.953125 0.75 2.671875l0 0.109375zm-1.203125 -0.140625q0 -1.1875 -0.515625 -1.875q-0.5 -0.703125 -1.390625 -0.703125q-1.09375 0 -1.640625 0.96875l0 3.375q0.546875 0.953125 1.65625 0.953125q0.875 0 1.375 -0.671875q0.515625 -0.6875 0.515625 -2.046875zm2.4150696 0q0 -1.046875 0.40625 -1.875q0.40625 -0.828125 1.125 -1.265625q0.734375 -0.453125 1.65625 -0.453125q1.4375 0 2.328125 1.0q0.890625 0.984375 0.890625 2.640625l0 0.09375q0 1.015625 -0.390625 1.84375q-0.390625 0.8125 -1.125 1.265625q-0.734375 0.453125 -1.6875 0.453125q-1.421875 0 -2.3125 -0.984375q-0.890625 -1.0 -0.890625 -2.640625l0 -0.078125zm1.203125 0.140625q0 1.171875 0.546875 1.875q0.546875 0.703125 1.453125 0.703125q0.921875 0 1.453125 -0.71875q0.546875 -0.71875 0.546875 -2.0q0 -1.171875 -0.546875 -1.890625q-0.546875 -0.71875 -1.46875 -0.71875q-0.890625 0 -1.4375 0.71875q-0.546875 0.703125 -0.546875 2.03125zm10.116821 -2.53125q-0.265625 -0.03125 -0.59375 -0.03125q-1.1875 0 -1.609375 1.0l0 5.0l-1.203125 0l0 -7.046875l1.171875 0l0.03125 0.8125q0.578125 -0.9375 1.671875 -0.9375q0.34375 0 0.53125 0.09375l0 1.109375zm2.7443542 -2.78125l0 1.703125l1.3125 0l0 0.9375l-1.3125 0l0 4.359375q0 0.421875 0.171875 0.640625q0.171875 0.21875 0.59375 0.21875q0.21875 0 0.578125 -0.078125l0 0.96875q-0.46875 0.125 -0.921875 0.125q-0.8125 0 -1.21875 -0.484375q-0.40625 -0.484375 -0.40625 -1.390625l0 -4.359375l-1.28125 0l0 -0.9375l1.28125 0l0 -1.703125l1.203125 0zm6.6063843 8.75l0 -6.109375l-1.109375 0l0 -0.9375l1.109375 0l0 -0.71875q0 -1.125 0.609375 -1.734375q0.609375 -0.625 1.703125 -0.625q0.421875 0 0.828125 0.109375l-0.0625 0.96875q-0.296875 -0.0625 -0.640625 -0.0625q-0.59375 0 -0.921875 0.34375q-0.3125 0.34375 -0.3125 0.984375l0 0.734375l1.5 0l0 0.9375l-1.5 0l0 6.109375l-1.203125 0zm5.3458557 0l-1.203125 0l0 -7.046875l1.203125 0l0 7.046875zm-1.296875 -8.90625q0 -0.296875 0.171875 -0.5q0.1875 -0.203125 0.53125 -0.203125q0.359375 0 0.53125 0.203125q0.1875 0.203125 0.1875 0.5q0 0.296875 -0.1875 0.5q-0.171875 0.1875 -0.53125 0.1875q-0.34375 0 -0.53125 -0.1875q-0.171875 -0.203125 -0.171875 -0.5zm4.5312805 8.90625l-1.203125 0l0 -10.0l1.203125 0l0 10.0zm4.843811 0.125q-1.421875 0 -2.328125 -0.9375q-0.890625 -0.9375 -0.890625 -2.515625l0 -0.21875q0 -1.046875 0.390625 -1.859375q0.40625 -0.828125 1.125 -1.296875q0.71875 -0.46875 1.5625 -0.46875q1.375 0 2.125 0.90625q0.765625 0.90625 0.765625 2.59375l0 0.5l-4.765625 0q0.015625 1.03125 0.59375 1.671875q0.59375 0.640625 1.484375 0.640625q0.640625 0 1.078125 -0.25q0.453125 -0.265625 0.78125 -0.6875l0.734375 0.5625q-0.875 1.359375 -2.65625 1.359375zm-0.140625 -6.3125q-0.734375 0 -1.234375 0.53125q-0.484375 0.53125 -0.609375 1.484375l3.53125 0l0 -0.078125q-0.046875 -0.921875 -0.5 -1.421875q-0.4375 -0.515625 -1.1875 -0.515625zm8.38916 4.3125q0 -0.484375 -0.375 -0.75q-0.359375 -0.265625 -1.28125 -0.453125q-0.90625 -0.203125 -1.453125 -0.46875q-0.53125 -0.28125 -0.796875 -0.65625q-0.25 -0.390625 -0.25 -0.90625q0 -0.859375 0.734375 -1.453125q0.734375 -0.609375 1.875 -0.609375q1.1875 0 1.9375 0.625q0.75 0.609375 0.75 1.578125l-1.21875 0q0 -0.5 -0.421875 -0.859375q-0.421875 -0.359375 -1.046875 -0.359375q-0.65625 0 -1.03125 0.296875q-0.375 0.28125 -0.375 0.75q0 0.421875 0.34375 0.65625q0.34375 0.21875 1.25 0.421875q0.90625 0.203125 1.453125 0.484375q0.5625 0.265625 0.828125 0.671875q0.28125 0.390625 0.28125 0.953125q0 0.9375 -0.765625 1.515625q-0.75 0.5625 -1.953125 0.5625q-0.84375 0 -1.5 -0.296875q-0.640625 -0.296875 -1.015625 -0.828125q-0.359375 -0.546875 -0.359375 -1.171875l1.203125 0q0.03125 0.609375 0.484375 0.96875q0.453125 0.34375 1.1875 0.34375q0.6875 0 1.09375 -0.265625q0.421875 -0.28125 0.421875 -0.75zm6.015564 -1.96875q0 -1.46875 0.390625 -2.828125q0.40625 -1.359375 1.1875 -2.453125q0.78125 -1.109375 1.609375 -1.5625l0.25 0.78125q-0.953125 0.734375 -1.5625 2.234375q-0.59375 1.5 -0.65625 3.34375l-0.015625 0.5625q0 2.515625 0.921875 4.359375q0.5625 1.109375 1.3125 1.734375l-0.25 0.734375q-0.859375 -0.484375 -1.640625 -1.625q-1.546875 -2.203125 -1.546875 -5.28125zm7.430542 2.984375q0.640625 0 1.125 -0.390625q0.484375 -0.390625 0.53125 -0.96875l1.140625 0q-0.03125 0.609375 -0.421875 1.15625q-0.375 0.546875 -1.015625 0.875q-0.640625 0.3125 -1.359375 0.3125q-1.4375 0 -2.296875 -0.953125q-0.84375 -0.96875 -0.84375 -2.625l0 -0.203125q0 -1.03125 0.375 -1.828125q0.390625 -0.796875 1.09375 -1.234375q0.703125 -0.453125 1.671875 -0.453125q1.171875 0 1.953125 0.71875q0.796875 0.703125 0.84375 1.828125l-1.140625 0q-0.046875 -0.671875 -0.515625 -1.109375q-0.46875 -0.453125 -1.140625 -0.453125q-0.921875 0 -1.4375 0.671875q-0.5 0.65625 -0.5 1.90625l0 0.21875q0 1.21875 0.5 1.875q0.515625 0.65625 1.4375 0.65625zm8.25769 -1.015625q0 -0.484375 -0.375 -0.75q-0.359375 -0.265625 -1.28125 -0.453125q-0.90625 -0.203125 -1.453125 -0.46875q-0.53125 -0.28125 -0.796875 -0.65625q-0.25 -0.390625 -0.25 -0.90625q0 -0.859375 0.734375 -1.453125q0.734375 -0.609375 1.875 -0.609375q1.1875 0 1.9375 0.625q0.75 0.609375 0.75 1.578125l-1.21875 0q0 -0.5 -0.421875 -0.859375q-0.421875 -0.359375 -1.046875 -0.359375q-0.65625 0 -1.03125 0.296875q-0.375 0.28125 -0.375 0.75q0 0.421875 0.34375 0.65625q0.34375 0.21875 1.25 0.421875q0.90625 0.203125 1.453125 0.484375q0.5625 0.265625 0.828125 0.671875q0.28125 0.390625 0.28125 0.953125q0 0.9375 -0.765625 1.515625q-0.75 0.5625 -1.953125 0.5625q-0.84375 0 -1.5 -0.296875q-0.640625 -0.296875 -1.015625 -0.828125q-0.359375 -0.546875 -0.359375 -1.171875l1.203125 0q0.03125 0.609375 0.484375 0.96875q0.453125 0.34375 1.1875 0.34375q0.6875 0 1.09375 -0.265625q0.421875 -0.28125 0.421875 -0.75zm5.0910645 0.234375l1.75 -5.40625l1.21875 0l-2.515625 7.046875l-0.921875 0l-2.546875 -7.046875l1.21875 0l1.796875 5.40625zm4.0964355 3.53125l-0.6875 -0.46875q0.609375 -0.859375 0.640625 -1.765625l0 -1.078125l1.171875 0l0 0.9375q0 0.65625 -0.328125 1.3125q-0.3125 0.65625 -0.796875 1.0625zm8.321899 -6.359375l1.546875 -2.578125l1.40625 0l-2.296875 3.484375l2.375 3.5625l-1.390625 0l-1.625 -2.640625l-1.625 2.640625l-1.40625 0l2.375 -3.5625l-2.296875 -3.484375l1.390625 0l1.546875 2.578125zm8.339874 2.59375q0 -0.484375 -0.375 -0.75q-0.359375 -0.265625 -1.28125 -0.453125q-0.90625 -0.203125 -1.453125 -0.46875q-0.53125 -0.28125 -0.796875 -0.65625q-0.25 -0.390625 -0.25 -0.90625q0 -0.859375 0.734375 -1.453125q0.734375 -0.609375 1.875 -0.609375q1.1875 0 1.9375 0.625q0.75 0.609375 0.75 1.578125l-1.21875 0q0 -0.5 -0.421875 -0.859375q-0.421875 -0.359375 -1.046875 -0.359375q-0.65625 0 -1.03125 0.296875q-0.375 0.28125 -0.375 0.75q0 0.421875 0.34375 0.65625q0.34375 0.21875 1.25 0.421875q0.90625 0.203125 1.453125 0.484375q0.5625 0.265625 0.828125 0.671875q0.28125 0.390625 0.28125 0.953125q0 0.9375 -0.765625 1.515625q-0.75 0.5625 -1.953125 0.5625q-0.84375 0 -1.5 -0.296875q-0.640625 -0.296875 -1.015625 -0.828125q-0.359375 -0.546875 -0.359375 -1.171875l1.203125 0q0.03125 0.609375 0.484375 0.96875q0.453125 0.34375 1.1875 0.34375q0.6875 0 1.09375 -0.265625q0.421875 -0.28125 0.421875 -0.75zm4.075409 1.875l-1.203125 0l0 -10.0l1.203125 0l0 10.0zm4.296936 -4.46875l1.546875 -2.578125l1.40625 0l-2.296875 3.484375l2.375 3.5625l-1.390625 0l-1.625 -2.640625l-1.625 2.640625l-1.40625 0l2.375 -3.5625l-2.296875 -3.484375l1.390625 0l1.546875 2.578125zm7.01178 0.6875q0 1.453125 -0.390625 2.78125q-0.375 1.328125 -1.15625 2.453125q-0.78125 1.125 -1.640625 1.609375l-0.25 -0.734375q1.0 -0.765625 1.609375 -2.375q0.609375 -1.625 0.625 -3.609375l0 -0.203125q0 -1.359375 -0.296875 -2.53125q-0.28125 -1.1875 -0.796875 -2.109375q-0.5 -0.9375 -1.140625 -1.453125l0.25 -0.734375q0.859375 0.46875 1.640625 1.59375q0.78125 1.109375 1.15625 2.453125q0.390625 1.328125 0.390625 2.859375z" fill-rule="nonzero"/><path fill="#000000" d="m368.98102 180.19862q0.71875 0 1.40625 0.375q0.6875 0.359375 1.0625 1.0625q0.390625 0.6875 0.390625 1.421875q0 1.1875 -0.84375 2.03125q-0.828125 0.84375 -2.015625 0.84375q-1.1875 0 -2.03125 -0.84375q-0.84375 -0.84375 -0.84375 -2.03125q0 -0.75 0.375 -1.4375q0.390625 -0.6875 1.078125 -1.046875q0.703125 -0.375 1.421875 -0.375z" fill-rule="nonzero"/><path fill="#000000" d="m401.57812 182.9955l-2.234375 0l0 3.828125l-1.25 0l0 -9.46875l3.140625 0q1.59375 0 2.453125 0.734375q0.875 0.71875 0.875 2.109375q0 0.890625 -0.484375 1.546875q-0.484375 0.65625 -1.328125 0.984375l2.21875 4.015625l0 0.078125l-1.34375 0l-2.046875 -3.828125zm-2.234375 -1.03125l1.921875 0q0.9375 0 1.484375 -0.46875q0.546875 -0.484375 0.546875 -1.296875q0 -0.875 -0.53125 -1.34375q-0.515625 -0.46875 -1.5 -0.484375l-1.921875 0l0 3.59375zm11.128296 4.859375q-0.109375 -0.203125 -0.171875 -0.734375q-0.84375 0.859375 -2.015625 0.859375q-1.03125 0 -1.703125 -0.578125q-0.671875 -0.59375 -0.671875 -1.5q0 -1.09375 0.828125 -1.703125q0.84375 -0.609375 2.359375 -0.609375l1.171875 0l0 -0.5625q0 -0.625 -0.375 -1.0q-0.375 -0.375 -1.109375 -0.375q-0.640625 0 -1.078125 0.328125q-0.4375 0.328125 -0.4375 0.78125l-1.203125 0q0 -0.515625 0.359375 -1.0q0.375 -0.5 1.015625 -0.78125q0.65625 -0.296875 1.421875 -0.296875q1.21875 0 1.90625 0.609375q0.6875 0.609375 0.71875 1.671875l0 3.25q0 0.96875 0.234375 1.53125l0 0.109375l-1.25 0zm-2.0 -0.921875q0.5625 0 1.0625 -0.28125q0.515625 -0.296875 0.734375 -0.765625l0 -1.453125l-0.9375 0q-2.21875 0 -2.21875 1.296875q0 0.5625 0.375 0.890625q0.390625 0.3125 0.984375 0.3125zm11.124786 -0.734375l1.359375 -5.390625l1.203125 0l-2.046875 7.046875l-0.984375 0l-1.703125 -5.34375l-1.671875 5.34375l-0.96875 0l-2.046875 -7.046875l1.203125 0l1.375 5.28125l1.640625 -5.28125l0.96875 0l1.671875 5.390625zm7.6744995 1.65625l0 -6.109375l-1.109375 0l0 -0.9375l1.109375 0l0 -0.71875q0 -1.125 0.609375 -1.734375q0.609375 -0.625 1.703125 -0.625q0.421875 0 0.828125 0.109375l-0.0625 0.96875q-0.296875 -0.0625 -0.640625 -0.0625q-0.59375 0 -0.921875 0.34375q-0.3125 0.34375 -0.3125 0.984375l0 0.734375l1.5 0l0 0.9375l-1.5 0l0 6.109375l-1.203125 0zm3.7208557 -3.578125q0 -1.046875 0.40625 -1.875q0.40625 -0.828125 1.125 -1.265625q0.734375 -0.453125 1.65625 -0.453125q1.4375 0 2.328125 1.0q0.890625 0.984375 0.890625 2.640625l0 0.09375q0 1.015625 -0.390625 1.84375q-0.390625 0.8125 -1.125 1.265625q-0.734375 0.453125 -1.6875 0.453125q-1.421875 0 -2.3125 -0.984375q-0.890625 -1.0 -0.890625 -2.640625l0 -0.078125zm1.203125 0.140625q0 1.171875 0.546875 1.875q0.546875 0.703125 1.453125 0.703125q0.921875 0 1.453125 -0.71875q0.546875 -0.71875 0.546875 -2.0q0 -1.171875 -0.546875 -1.890625q-0.546875 -0.71875 -1.46875 -0.71875q-0.890625 0 -1.4375 0.71875q-0.546875 0.703125 -0.546875 2.03125zm10.116821 -2.53125q-0.265625 -0.03125 -0.59375 -0.03125q-1.1875 0 -1.609375 1.0l0 5.0l-1.203125 0l0 -7.046875l1.171875 0l0.03125 0.8125q0.578125 -0.9375 1.671875 -0.9375q0.34375 0 0.53125 0.09375l0 1.109375zm2.2443237 -1.078125l0.03125 0.78125q0.765625 -0.90625 2.09375 -0.90625q1.46875 0 2.0 1.125q0.359375 -0.5 0.921875 -0.8125q0.5625 -0.3125 1.328125 -0.3125q2.3125 0 2.359375 2.453125l0 4.71875l-1.203125 0l0 -4.640625q0 -0.765625 -0.34375 -1.140625q-0.34375 -0.375 -1.171875 -0.375q-0.65625 0 -1.109375 0.40625q-0.4375 0.40625 -0.515625 1.078125l0 4.671875l-1.203125 0l0 -4.609375q0 -1.546875 -1.5 -1.546875q-1.1875 0 -1.625 1.015625l0 5.140625l-1.203125 0l0 -7.046875l1.140625 0zm14.900391 7.046875q-0.109375 -0.203125 -0.171875 -0.734375q-0.84375 0.859375 -2.015625 0.859375q-1.03125 0 -1.703125 -0.578125q-0.671875 -0.59375 -0.671875 -1.5q0 -1.09375 0.828125 -1.703125q0.84375 -0.609375 2.359375 -0.609375l1.171875 0l0 -0.5625q0 -0.625 -0.375 -1.0q-0.375 -0.375 -1.109375 -0.375q-0.640625 0 -1.078125 0.328125q-0.4375 0.328125 -0.4375 0.78125l-1.203125 0q0 -0.515625 0.359375 -1.0q0.375 -0.5 1.015625 -0.78125q0.65625 -0.296875 1.421875 -0.296875q1.21875 0 1.90625 0.609375q0.6875 0.609375 0.71875 1.671875l0 3.25q0 0.96875 0.234375 1.53125l0 0.109375l-1.25 0zm-2.0 -0.921875q0.5625 0 1.0625 -0.28125q0.515625 -0.296875 0.734375 -0.765625l0 -1.453125l-0.9375 0q-2.21875 0 -2.21875 1.296875q0 0.5625 0.375 0.890625q0.390625 0.3125 0.984375 0.3125zm6.5310364 -7.828125l0 1.703125l1.3125 0l0 0.9375l-1.3125 0l0 4.359375q0 0.421875 0.171875 0.640625q0.171875 0.21875 0.59375 0.21875q0.21875 0 0.578125 -0.078125l0 0.96875q-0.46875 0.125 -0.921875 0.125q-0.8125 0 -1.21875 -0.484375q-0.40625 -0.484375 -0.40625 -1.390625l0 -4.359375l-1.28125 0l0 -0.9375l1.28125 0l0 -1.703125l1.203125 0z" fill-rule="nonzero"/><path fill="#000000" fill-opacity="0.0" d="m178.29659 110.00787l0 44.25197" fill-rule="evenodd"/><path stroke="#000000" stroke-width="1.0" stroke-linejoin="round" stroke-linecap="butt" d="m178.29659 110.00787l0 38.25197" fill-rule="evenodd"/><path fill="#000000" stroke="#000000" stroke-width="1.0" stroke-linecap="butt" d="m176.64485 148.25984l1.6517334 4.538101l1.6517334 -4.538101z" fill-rule="evenodd"/><path fill="#000000" fill-opacity="0.0" d="m340.0 169.02362l-60.6929 42.771652" fill-rule="evenodd"/><path stroke="#000000" stroke-width="1.0" stroke-linejoin="round" stroke-linecap="butt" d="m340.0 169.02362l-55.78842 39.315353" fill-rule="evenodd"/><path fill="#000000" stroke="#000000" stroke-width="1.0" stroke-linecap="butt" d="m283.2601 206.98883l-2.7580261 3.9643097l4.66098 -1.2640228z" fill-rule="evenodd"/></g></svg>